<mxfile host="app.diagrams.net" modified="2022-04-28T18:11:47.631Z" agent="5.0 (Windows NT 10.0; Win64; x64) AppleWebKit/537.36 (KHTML, like Gecko) Chrome/100.0.4896.127 Safari/537.36" etag="npI0EOSBs_VF8MB8zcFb" version="17.4.6" type="github">
  <diagram id="GzKakMBZJSLyFwyd6iJl" name="Page-1">
    <mxGraphModel dx="1038" dy="2143" grid="1" gridSize="10" guides="1" tooltips="1" connect="1" arrows="1" fold="1" page="1" pageScale="1" pageWidth="1169" pageHeight="1654" math="0" shadow="0">
      <root>
        <mxCell id="0" />
        <mxCell id="1" parent="0" />
        <mxCell id="Bii71_IuoEZ9I5wEcGJ1-39" style="edgeStyle=orthogonalEdgeStyle;rounded=0;orthogonalLoop=1;jettySize=auto;html=1;entryX=0.5;entryY=0.5;entryDx=0;entryDy=0;entryPerimeter=0;endArrow=blockThin;endFill=1;" edge="1" parent="1" source="Bii71_IuoEZ9I5wEcGJ1-1" target="Bii71_IuoEZ9I5wEcGJ1-5">
          <mxGeometry relative="1" as="geometry" />
        </mxCell>
        <mxCell id="Bii71_IuoEZ9I5wEcGJ1-41" style="edgeStyle=orthogonalEdgeStyle;rounded=0;orthogonalLoop=1;jettySize=auto;html=1;entryX=0;entryY=0.5;entryDx=0;entryDy=0;endArrow=none;endFill=0;strokeWidth=2;fillColor=#60a917;strokeColor=#2D7600;" edge="1" parent="1" source="Bii71_IuoEZ9I5wEcGJ1-1" target="Bii71_IuoEZ9I5wEcGJ1-32">
          <mxGeometry relative="1" as="geometry">
            <Array as="points">
              <mxPoint x="180" y="310" />
              <mxPoint x="180" y="300" />
              <mxPoint x="570" y="300" />
            </Array>
          </mxGeometry>
        </mxCell>
        <mxCell id="Bii71_IuoEZ9I5wEcGJ1-42" style="edgeStyle=orthogonalEdgeStyle;rounded=0;orthogonalLoop=1;jettySize=auto;html=1;entryX=0;entryY=0.5;entryDx=0;entryDy=0;endArrow=none;endFill=0;strokeWidth=2;fillColor=#60a917;strokeColor=#2D7600;" edge="1" parent="1" source="Bii71_IuoEZ9I5wEcGJ1-1" target="Bii71_IuoEZ9I5wEcGJ1-31">
          <mxGeometry relative="1" as="geometry">
            <Array as="points">
              <mxPoint x="180" y="310" />
              <mxPoint x="180" y="390" />
              <mxPoint x="480" y="390" />
              <mxPoint x="480" y="440" />
            </Array>
          </mxGeometry>
        </mxCell>
        <mxCell id="Bii71_IuoEZ9I5wEcGJ1-43" style="edgeStyle=orthogonalEdgeStyle;rounded=0;orthogonalLoop=1;jettySize=auto;html=1;endArrow=none;endFill=0;strokeWidth=2;fillColor=#60a917;strokeColor=#2D7600;" edge="1" parent="1" source="Bii71_IuoEZ9I5wEcGJ1-1" target="Bii71_IuoEZ9I5wEcGJ1-33">
          <mxGeometry relative="1" as="geometry">
            <Array as="points">
              <mxPoint x="180" y="310" />
              <mxPoint x="180" y="350" />
            </Array>
          </mxGeometry>
        </mxCell>
        <mxCell id="Bii71_IuoEZ9I5wEcGJ1-44" style="edgeStyle=orthogonalEdgeStyle;rounded=0;orthogonalLoop=1;jettySize=auto;html=1;entryX=0;entryY=0.5;entryDx=0;entryDy=0;endArrow=none;endFill=0;strokeWidth=2;fillColor=#60a917;strokeColor=#2D7600;" edge="1" parent="1" target="Bii71_IuoEZ9I5wEcGJ1-30">
          <mxGeometry relative="1" as="geometry">
            <mxPoint x="140" y="310" as="sourcePoint" />
            <Array as="points">
              <mxPoint x="180" y="310" />
              <mxPoint x="180" y="380" />
              <mxPoint x="640" y="380" />
              <mxPoint x="640" y="440" />
            </Array>
          </mxGeometry>
        </mxCell>
        <mxCell id="Bii71_IuoEZ9I5wEcGJ1-1" value="Employer" style="shape=umlActor;verticalLabelPosition=bottom;verticalAlign=top;html=1;outlineConnect=0;fillColor=#d5e8d4;strokeColor=#82b366;" vertex="1" parent="1">
          <mxGeometry x="110" y="280" width="30" height="60" as="geometry" />
        </mxCell>
        <mxCell id="Bii71_IuoEZ9I5wEcGJ1-36" style="edgeStyle=orthogonalEdgeStyle;rounded=0;orthogonalLoop=1;jettySize=auto;html=1;entryX=0;entryY=0.5;entryDx=0;entryDy=0;endArrow=none;endFill=0;fillColor=#e3c800;strokeColor=#B09500;strokeWidth=2;" edge="1" parent="1" source="Bii71_IuoEZ9I5wEcGJ1-3" target="Bii71_IuoEZ9I5wEcGJ1-34">
          <mxGeometry relative="1" as="geometry" />
        </mxCell>
        <mxCell id="Bii71_IuoEZ9I5wEcGJ1-38" style="edgeStyle=orthogonalEdgeStyle;rounded=0;orthogonalLoop=1;jettySize=auto;html=1;entryX=0.5;entryY=0.5;entryDx=0;entryDy=0;entryPerimeter=0;endArrow=blockThin;endFill=1;" edge="1" parent="1" source="Bii71_IuoEZ9I5wEcGJ1-3" target="Bii71_IuoEZ9I5wEcGJ1-1">
          <mxGeometry relative="1" as="geometry" />
        </mxCell>
        <mxCell id="Bii71_IuoEZ9I5wEcGJ1-3" value="Admin" style="shape=umlActor;verticalLabelPosition=bottom;verticalAlign=top;html=1;outlineConnect=0;fillColor=#fff2cc;strokeColor=#d6b656;" vertex="1" parent="1">
          <mxGeometry x="110" y="415" width="30" height="60" as="geometry" />
        </mxCell>
        <mxCell id="Bii71_IuoEZ9I5wEcGJ1-57" style="edgeStyle=orthogonalEdgeStyle;rounded=0;orthogonalLoop=1;jettySize=auto;html=1;entryX=0;entryY=0.5;entryDx=0;entryDy=0;endArrow=none;endFill=0;strokeWidth=2;fillColor=#6a00ff;strokeColor=#3700CC;" edge="1" parent="1" source="Bii71_IuoEZ9I5wEcGJ1-4" target="Bii71_IuoEZ9I5wEcGJ1-19">
          <mxGeometry relative="1" as="geometry">
            <Array as="points">
              <mxPoint x="160" y="-10" />
              <mxPoint x="160" y="-40" />
              <mxPoint x="410" y="-40" />
            </Array>
          </mxGeometry>
        </mxCell>
        <mxCell id="Bii71_IuoEZ9I5wEcGJ1-58" style="edgeStyle=orthogonalEdgeStyle;rounded=0;orthogonalLoop=1;jettySize=auto;html=1;entryX=0;entryY=0.5;entryDx=0;entryDy=0;endArrow=none;endFill=0;strokeWidth=2;fillColor=#6a00ff;strokeColor=#3700CC;" edge="1" parent="1" source="Bii71_IuoEZ9I5wEcGJ1-4" target="Bii71_IuoEZ9I5wEcGJ1-15">
          <mxGeometry relative="1" as="geometry">
            <Array as="points">
              <mxPoint x="170" y="-10" />
              <mxPoint x="170" y="63" />
            </Array>
          </mxGeometry>
        </mxCell>
        <mxCell id="Bii71_IuoEZ9I5wEcGJ1-59" style="edgeStyle=orthogonalEdgeStyle;rounded=0;orthogonalLoop=1;jettySize=auto;html=1;entryX=0;entryY=0.5;entryDx=0;entryDy=0;endArrow=none;endFill=0;strokeWidth=2;fillColor=#6a00ff;strokeColor=#3700CC;" edge="1" parent="1" source="Bii71_IuoEZ9I5wEcGJ1-4" target="Bii71_IuoEZ9I5wEcGJ1-18">
          <mxGeometry relative="1" as="geometry">
            <Array as="points">
              <mxPoint x="170" y="-10" />
              <mxPoint x="170" y="-30" />
              <mxPoint x="390" y="-30" />
              <mxPoint x="390" y="10" />
              <mxPoint x="510" y="10" />
              <mxPoint x="510" y="-2" />
            </Array>
          </mxGeometry>
        </mxCell>
        <mxCell id="Bii71_IuoEZ9I5wEcGJ1-60" style="edgeStyle=orthogonalEdgeStyle;rounded=0;orthogonalLoop=1;jettySize=auto;html=1;entryX=0;entryY=0.5;entryDx=0;entryDy=0;endArrow=none;endFill=0;strokeWidth=2;fillColor=#6a00ff;strokeColor=#3700CC;" edge="1" parent="1" source="Bii71_IuoEZ9I5wEcGJ1-4" target="Bii71_IuoEZ9I5wEcGJ1-14">
          <mxGeometry relative="1" as="geometry">
            <Array as="points">
              <mxPoint x="170" y="-10" />
              <mxPoint x="170" y="87" />
            </Array>
          </mxGeometry>
        </mxCell>
        <mxCell id="Bii71_IuoEZ9I5wEcGJ1-61" style="edgeStyle=orthogonalEdgeStyle;rounded=0;orthogonalLoop=1;jettySize=auto;html=1;endArrow=none;endFill=0;strokeWidth=2;fillColor=#6a00ff;strokeColor=#3700CC;entryX=0;entryY=0.5;entryDx=0;entryDy=0;" edge="1" parent="1" source="Bii71_IuoEZ9I5wEcGJ1-4" target="Bii71_IuoEZ9I5wEcGJ1-17">
          <mxGeometry relative="1" as="geometry">
            <Array as="points">
              <mxPoint x="190" y="-10" />
              <mxPoint x="190" y="20" />
              <mxPoint x="630" y="20" />
              <mxPoint x="630" y="-10" />
            </Array>
          </mxGeometry>
        </mxCell>
        <mxCell id="Bii71_IuoEZ9I5wEcGJ1-62" style="edgeStyle=orthogonalEdgeStyle;rounded=0;orthogonalLoop=1;jettySize=auto;html=1;endArrow=none;endFill=0;strokeWidth=2;fillColor=#6a00ff;strokeColor=#3700CC;startArrow=none;" edge="1" parent="1" source="Bii71_IuoEZ9I5wEcGJ1-15" target="Bii71_IuoEZ9I5wEcGJ1-16">
          <mxGeometry relative="1" as="geometry">
            <Array as="points">
              <mxPoint x="170" y="100" />
              <mxPoint x="170" y="100" />
            </Array>
          </mxGeometry>
        </mxCell>
        <mxCell id="Bii71_IuoEZ9I5wEcGJ1-4" value="Visitor" style="shape=umlActor;verticalLabelPosition=bottom;verticalAlign=top;html=1;outlineConnect=0;fillColor=#e1d5e7;strokeColor=#9673a6;" vertex="1" parent="1">
          <mxGeometry x="110" y="-40" width="30" height="60" as="geometry" />
        </mxCell>
        <mxCell id="Bii71_IuoEZ9I5wEcGJ1-40" style="edgeStyle=orthogonalEdgeStyle;rounded=0;orthogonalLoop=1;jettySize=auto;html=1;entryX=0.5;entryY=0.5;entryDx=0;entryDy=0;entryPerimeter=0;endArrow=blockThin;endFill=1;" edge="1" parent="1" source="Bii71_IuoEZ9I5wEcGJ1-5" target="Bii71_IuoEZ9I5wEcGJ1-4">
          <mxGeometry relative="1" as="geometry" />
        </mxCell>
        <mxCell id="Bii71_IuoEZ9I5wEcGJ1-46" style="edgeStyle=orthogonalEdgeStyle;rounded=0;orthogonalLoop=1;jettySize=auto;html=1;entryX=0;entryY=0.5;entryDx=0;entryDy=0;endArrow=none;endFill=0;strokeWidth=2;fillColor=#e51400;strokeColor=#B20000;" edge="1" parent="1" source="Bii71_IuoEZ9I5wEcGJ1-5" target="Bii71_IuoEZ9I5wEcGJ1-20">
          <mxGeometry relative="1" as="geometry" />
        </mxCell>
        <mxCell id="Bii71_IuoEZ9I5wEcGJ1-47" style="edgeStyle=orthogonalEdgeStyle;rounded=0;orthogonalLoop=1;jettySize=auto;html=1;entryX=0;entryY=0.5;entryDx=0;entryDy=0;endArrow=none;endFill=0;strokeWidth=2;fillColor=#e51400;strokeColor=#B20000;" edge="1" parent="1" source="Bii71_IuoEZ9I5wEcGJ1-5" target="Bii71_IuoEZ9I5wEcGJ1-26">
          <mxGeometry relative="1" as="geometry" />
        </mxCell>
        <mxCell id="Bii71_IuoEZ9I5wEcGJ1-48" style="edgeStyle=orthogonalEdgeStyle;rounded=0;orthogonalLoop=1;jettySize=auto;html=1;endArrow=none;endFill=0;strokeWidth=2;fillColor=#e51400;strokeColor=#B20000;" edge="1" parent="1" source="Bii71_IuoEZ9I5wEcGJ1-5" target="Bii71_IuoEZ9I5wEcGJ1-23">
          <mxGeometry relative="1" as="geometry" />
        </mxCell>
        <mxCell id="Bii71_IuoEZ9I5wEcGJ1-49" style="edgeStyle=orthogonalEdgeStyle;rounded=0;orthogonalLoop=1;jettySize=auto;html=1;endArrow=none;endFill=0;strokeWidth=2;fillColor=#e51400;strokeColor=#B20000;" edge="1" parent="1" source="Bii71_IuoEZ9I5wEcGJ1-5" target="Bii71_IuoEZ9I5wEcGJ1-27">
          <mxGeometry relative="1" as="geometry" />
        </mxCell>
        <mxCell id="Bii71_IuoEZ9I5wEcGJ1-50" style="edgeStyle=orthogonalEdgeStyle;rounded=0;orthogonalLoop=1;jettySize=auto;html=1;entryX=0;entryY=0.5;entryDx=0;entryDy=0;endArrow=none;endFill=0;strokeWidth=2;fillColor=#e51400;strokeColor=#B20000;" edge="1" parent="1" source="Bii71_IuoEZ9I5wEcGJ1-5" target="Bii71_IuoEZ9I5wEcGJ1-21">
          <mxGeometry relative="1" as="geometry" />
        </mxCell>
        <mxCell id="Bii71_IuoEZ9I5wEcGJ1-51" style="edgeStyle=orthogonalEdgeStyle;rounded=0;orthogonalLoop=1;jettySize=auto;html=1;endArrow=none;endFill=0;strokeWidth=2;fillColor=#e51400;strokeColor=#B20000;" edge="1" parent="1" source="Bii71_IuoEZ9I5wEcGJ1-5" target="Bii71_IuoEZ9I5wEcGJ1-25">
          <mxGeometry relative="1" as="geometry" />
        </mxCell>
        <mxCell id="Bii71_IuoEZ9I5wEcGJ1-52" style="edgeStyle=orthogonalEdgeStyle;rounded=0;orthogonalLoop=1;jettySize=auto;html=1;entryX=0;entryY=0.5;entryDx=0;entryDy=0;endArrow=none;endFill=0;strokeWidth=2;fillColor=#e51400;strokeColor=#B20000;" edge="1" parent="1" source="Bii71_IuoEZ9I5wEcGJ1-5" target="Bii71_IuoEZ9I5wEcGJ1-22">
          <mxGeometry relative="1" as="geometry" />
        </mxCell>
        <mxCell id="Bii71_IuoEZ9I5wEcGJ1-53" style="edgeStyle=orthogonalEdgeStyle;rounded=0;orthogonalLoop=1;jettySize=auto;html=1;entryX=0;entryY=0.5;entryDx=0;entryDy=0;endArrow=none;endFill=0;strokeWidth=2;fillColor=#e51400;strokeColor=#B20000;" edge="1" parent="1" source="Bii71_IuoEZ9I5wEcGJ1-5" target="Bii71_IuoEZ9I5wEcGJ1-28">
          <mxGeometry relative="1" as="geometry" />
        </mxCell>
        <mxCell id="Bii71_IuoEZ9I5wEcGJ1-54" style="edgeStyle=orthogonalEdgeStyle;rounded=0;orthogonalLoop=1;jettySize=auto;html=1;endArrow=none;endFill=0;strokeWidth=2;fillColor=#e51400;strokeColor=#B20000;" edge="1" parent="1" source="Bii71_IuoEZ9I5wEcGJ1-5" target="Bii71_IuoEZ9I5wEcGJ1-24">
          <mxGeometry relative="1" as="geometry" />
        </mxCell>
        <mxCell id="Bii71_IuoEZ9I5wEcGJ1-5" value="User" style="shape=umlActor;verticalLabelPosition=bottom;verticalAlign=top;html=1;outlineConnect=0;fillColor=#f8cecc;strokeColor=#b85450;" vertex="1" parent="1">
          <mxGeometry x="110" y="102" width="30" height="60" as="geometry" />
        </mxCell>
        <mxCell id="Bii71_IuoEZ9I5wEcGJ1-56" style="edgeStyle=orthogonalEdgeStyle;rounded=0;orthogonalLoop=1;jettySize=auto;html=1;entryX=1;entryY=0.5;entryDx=0;entryDy=0;endArrow=none;endFill=0;fillColor=#d80073;strokeColor=#A50040;strokeWidth=2;" edge="1" parent="1" source="Bii71_IuoEZ9I5wEcGJ1-6" target="Bii71_IuoEZ9I5wEcGJ1-55">
          <mxGeometry relative="1" as="geometry" />
        </mxCell>
        <mxCell id="Bii71_IuoEZ9I5wEcGJ1-6" value="&amp;lt;Systeme&amp;gt;&lt;br&gt;Stripe" style="shape=umlActor;verticalLabelPosition=bottom;verticalAlign=top;html=1;outlineConnect=0;fillColor=#fad9d5;strokeColor=#ae4132;" vertex="1" parent="1">
          <mxGeometry x="890" y="130" width="30" height="60" as="geometry" />
        </mxCell>
        <mxCell id="Bii71_IuoEZ9I5wEcGJ1-63" style="edgeStyle=orthogonalEdgeStyle;rounded=0;orthogonalLoop=1;jettySize=auto;html=1;entryX=1;entryY=0.5;entryDx=0;entryDy=0;endArrow=none;endFill=0;fillColor=#fa6800;strokeColor=#C73500;strokeWidth=2;" edge="1" parent="1" source="Bii71_IuoEZ9I5wEcGJ1-7" target="Bii71_IuoEZ9I5wEcGJ1-29">
          <mxGeometry relative="1" as="geometry">
            <Array as="points">
              <mxPoint x="960" y="70" />
              <mxPoint x="960" y="350" />
            </Array>
          </mxGeometry>
        </mxCell>
        <mxCell id="Bii71_IuoEZ9I5wEcGJ1-64" style="edgeStyle=orthogonalEdgeStyle;rounded=0;orthogonalLoop=1;jettySize=auto;html=1;entryX=1;entryY=0.5;entryDx=0;entryDy=0;endArrow=none;endFill=0;fillColor=#fa6800;strokeColor=#C73500;strokeWidth=2;" edge="1" parent="1" source="Bii71_IuoEZ9I5wEcGJ1-7" target="Bii71_IuoEZ9I5wEcGJ1-23">
          <mxGeometry relative="1" as="geometry" />
        </mxCell>
        <mxCell id="Bii71_IuoEZ9I5wEcGJ1-65" style="edgeStyle=orthogonalEdgeStyle;rounded=0;orthogonalLoop=1;jettySize=auto;html=1;entryX=1;entryY=0.5;entryDx=0;entryDy=0;endArrow=none;endFill=0;fillColor=#fa6800;strokeColor=#C73500;strokeWidth=2;" edge="1" parent="1" source="Bii71_IuoEZ9I5wEcGJ1-7" target="Bii71_IuoEZ9I5wEcGJ1-14">
          <mxGeometry relative="1" as="geometry" />
        </mxCell>
        <mxCell id="Bii71_IuoEZ9I5wEcGJ1-66" style="edgeStyle=orthogonalEdgeStyle;rounded=0;orthogonalLoop=1;jettySize=auto;html=1;entryX=1;entryY=0.5;entryDx=0;entryDy=0;endArrow=none;endFill=0;fillColor=#fa6800;strokeColor=#C73500;strokeWidth=2;" edge="1" parent="1" source="Bii71_IuoEZ9I5wEcGJ1-7" target="Bii71_IuoEZ9I5wEcGJ1-25">
          <mxGeometry relative="1" as="geometry" />
        </mxCell>
        <mxCell id="Bii71_IuoEZ9I5wEcGJ1-67" style="edgeStyle=orthogonalEdgeStyle;rounded=0;orthogonalLoop=1;jettySize=auto;html=1;entryX=1;entryY=0.5;entryDx=0;entryDy=0;endArrow=none;endFill=0;fillColor=#fa6800;strokeColor=#C73500;strokeWidth=2;" edge="1" parent="1" source="Bii71_IuoEZ9I5wEcGJ1-7" target="Bii71_IuoEZ9I5wEcGJ1-18">
          <mxGeometry relative="1" as="geometry">
            <Array as="points">
              <mxPoint x="960" y="70" />
              <mxPoint x="960" />
              <mxPoint x="740" />
              <mxPoint x="740" y="-40" />
              <mxPoint x="620" y="-40" />
              <mxPoint x="620" y="-2" />
            </Array>
          </mxGeometry>
        </mxCell>
        <mxCell id="Bii71_IuoEZ9I5wEcGJ1-7" value="&amp;lt;Système&amp;gt;&lt;br&gt;MailJet" style="shape=umlActor;verticalLabelPosition=bottom;verticalAlign=top;html=1;outlineConnect=0;fillColor=#ffe6cc;strokeColor=#d79b00;" vertex="1" parent="1">
          <mxGeometry x="1000" y="40" width="30" height="60" as="geometry" />
        </mxCell>
        <mxCell id="Bii71_IuoEZ9I5wEcGJ1-12" value="" style="swimlane;startSize=0;" vertex="1" parent="1">
          <mxGeometry x="370" y="-50" width="480" height="530" as="geometry" />
        </mxCell>
        <mxCell id="Bii71_IuoEZ9I5wEcGJ1-13" value="Système" style="text;html=1;align=center;verticalAlign=middle;resizable=0;points=[];autosize=1;strokeColor=none;fillColor=none;" vertex="1" parent="Bii71_IuoEZ9I5wEcGJ1-12">
          <mxGeometry x="400" y="10.5" width="60" height="20" as="geometry" />
        </mxCell>
        <mxCell id="Bii71_IuoEZ9I5wEcGJ1-19" value="Login" style="ellipse;whiteSpace=wrap;html=1;" vertex="1" parent="Bii71_IuoEZ9I5wEcGJ1-12">
          <mxGeometry x="40" y="20" width="60" height="30" as="geometry" />
        </mxCell>
        <mxCell id="Bii71_IuoEZ9I5wEcGJ1-18" value="Inscription" style="ellipse;whiteSpace=wrap;html=1;" vertex="1" parent="Bii71_IuoEZ9I5wEcGJ1-12">
          <mxGeometry x="165" y="30.5" width="70" height="35" as="geometry" />
        </mxCell>
        <mxCell id="Bii71_IuoEZ9I5wEcGJ1-17" value="Liste des produits" style="ellipse;whiteSpace=wrap;html=1;" vertex="1" parent="Bii71_IuoEZ9I5wEcGJ1-12">
          <mxGeometry x="270" y="15" width="80" height="50" as="geometry" />
        </mxCell>
        <mxCell id="Bii71_IuoEZ9I5wEcGJ1-16" value="Fiche d&#39;un produit" style="ellipse;whiteSpace=wrap;html=1;" vertex="1" parent="Bii71_IuoEZ9I5wEcGJ1-12">
          <mxGeometry x="260" y="130" width="80" height="50" as="geometry" />
        </mxCell>
        <mxCell id="Bii71_IuoEZ9I5wEcGJ1-14" value="F.A.Q./ Contact" style="ellipse;whiteSpace=wrap;html=1;" vertex="1" parent="Bii71_IuoEZ9I5wEcGJ1-12">
          <mxGeometry x="110" y="112" width="70" height="50" as="geometry" />
        </mxCell>
        <mxCell id="Bii71_IuoEZ9I5wEcGJ1-25" value="News Letter" style="ellipse;whiteSpace=wrap;html=1;" vertex="1" parent="Bii71_IuoEZ9I5wEcGJ1-12">
          <mxGeometry x="200" y="227" width="70" height="50" as="geometry" />
        </mxCell>
        <mxCell id="Bii71_IuoEZ9I5wEcGJ1-24" value="Suivi de commande" style="ellipse;whiteSpace=wrap;html=1;" vertex="1" parent="Bii71_IuoEZ9I5wEcGJ1-12">
          <mxGeometry x="370" y="237" width="75" height="58" as="geometry" />
        </mxCell>
        <mxCell id="Bii71_IuoEZ9I5wEcGJ1-23" value="Valider son panier" style="ellipse;whiteSpace=wrap;html=1;" vertex="1" parent="Bii71_IuoEZ9I5wEcGJ1-12">
          <mxGeometry x="95" y="240" width="75" height="50" as="geometry" />
        </mxCell>
        <mxCell id="Bii71_IuoEZ9I5wEcGJ1-22" value="Gestion de son compte" style="ellipse;whiteSpace=wrap;html=1;" vertex="1" parent="Bii71_IuoEZ9I5wEcGJ1-12">
          <mxGeometry x="280" y="265" width="80" height="40" as="geometry" />
        </mxCell>
        <mxCell id="Bii71_IuoEZ9I5wEcGJ1-21" value="Moyen de paiement" style="ellipse;whiteSpace=wrap;html=1;" vertex="1" parent="Bii71_IuoEZ9I5wEcGJ1-12">
          <mxGeometry x="195" y="250" width="80" height="55" as="geometry" />
        </mxCell>
        <mxCell id="Bii71_IuoEZ9I5wEcGJ1-20" value="Valider C.G.V." style="ellipse;whiteSpace=wrap;html=1;" vertex="1" parent="Bii71_IuoEZ9I5wEcGJ1-12">
          <mxGeometry x="10" y="237" width="60" height="40" as="geometry" />
        </mxCell>
        <mxCell id="Bii71_IuoEZ9I5wEcGJ1-26" value="Historique des commandes" style="ellipse;whiteSpace=wrap;html=1;" vertex="1" parent="Bii71_IuoEZ9I5wEcGJ1-12">
          <mxGeometry x="10" y="270" width="90" height="50" as="geometry" />
        </mxCell>
        <mxCell id="Bii71_IuoEZ9I5wEcGJ1-27" value="Adresse de livraison" style="ellipse;whiteSpace=wrap;html=1;" vertex="1" parent="Bii71_IuoEZ9I5wEcGJ1-12">
          <mxGeometry x="120" y="250" width="80" height="55" as="geometry" />
        </mxCell>
        <mxCell id="Bii71_IuoEZ9I5wEcGJ1-28" value="Commentaire/ Notation" style="ellipse;whiteSpace=wrap;html=1;" vertex="1" parent="Bii71_IuoEZ9I5wEcGJ1-12">
          <mxGeometry x="280" y="227" width="90" height="60" as="geometry" />
        </mxCell>
        <mxCell id="Bii71_IuoEZ9I5wEcGJ1-32" value="Gestion des produits" style="ellipse;whiteSpace=wrap;html=1;" vertex="1" parent="Bii71_IuoEZ9I5wEcGJ1-12">
          <mxGeometry x="215" y="330" width="80" height="60" as="geometry" />
        </mxCell>
        <mxCell id="Bii71_IuoEZ9I5wEcGJ1-31" value="Gestion des commandes" style="ellipse;whiteSpace=wrap;html=1;" vertex="1" parent="Bii71_IuoEZ9I5wEcGJ1-12">
          <mxGeometry x="160" y="460" width="80" height="60" as="geometry" />
        </mxCell>
        <mxCell id="Bii71_IuoEZ9I5wEcGJ1-30" value="Dashboard" style="ellipse;whiteSpace=wrap;html=1;" vertex="1" parent="Bii71_IuoEZ9I5wEcGJ1-12">
          <mxGeometry x="300" y="465" width="70" height="50" as="geometry" />
        </mxCell>
        <mxCell id="Bii71_IuoEZ9I5wEcGJ1-29" value="Réponse aux messages" style="ellipse;whiteSpace=wrap;html=1;" vertex="1" parent="Bii71_IuoEZ9I5wEcGJ1-12">
          <mxGeometry x="370" y="375" width="80" height="50" as="geometry" />
        </mxCell>
        <mxCell id="Bii71_IuoEZ9I5wEcGJ1-34" value="Gestion des employés" style="ellipse;whiteSpace=wrap;html=1;" vertex="1" parent="Bii71_IuoEZ9I5wEcGJ1-12">
          <mxGeometry x="20" y="470" width="80" height="50" as="geometry" />
        </mxCell>
        <mxCell id="Bii71_IuoEZ9I5wEcGJ1-55" value="Système de paiement" style="ellipse;whiteSpace=wrap;html=1;" vertex="1" parent="Bii71_IuoEZ9I5wEcGJ1-12">
          <mxGeometry x="380" y="83" width="80" height="50" as="geometry" />
        </mxCell>
        <mxCell id="Bii71_IuoEZ9I5wEcGJ1-69" value="Extends" style="endArrow=blockThin;endSize=6;endFill=1;html=1;rounded=0;exitX=0.5;exitY=0;exitDx=0;exitDy=0;dashed=1;edgeStyle=orthogonalEdgeStyle;labelPosition=center;verticalLabelPosition=top;align=center;verticalAlign=bottom;entryX=0.5;entryY=0;entryDx=0;entryDy=0;strokeWidth=2;fillColor=#1ba1e2;strokeColor=#00FFFF;" edge="1" parent="Bii71_IuoEZ9I5wEcGJ1-12" source="Bii71_IuoEZ9I5wEcGJ1-19" target="Bii71_IuoEZ9I5wEcGJ1-18">
          <mxGeometry width="160" relative="1" as="geometry">
            <mxPoint x="20" y="9" as="sourcePoint" />
            <mxPoint x="180" y="9" as="targetPoint" />
            <Array as="points">
              <mxPoint x="70" y="10" />
              <mxPoint x="200" y="10" />
            </Array>
          </mxGeometry>
        </mxCell>
        <mxCell id="Bii71_IuoEZ9I5wEcGJ1-76" value="Include" style="endArrow=blockThin;endSize=6;endFill=1;html=1;rounded=0;dashed=1;labelPosition=center;verticalLabelPosition=top;align=center;verticalAlign=bottom;edgeStyle=orthogonalEdgeStyle;exitX=0.5;exitY=1;exitDx=0;exitDy=0;entryX=0.5;entryY=0;entryDx=0;entryDy=0;strokeWidth=2;fillColor=#0050ef;strokeColor=#001DBC;" edge="1" parent="Bii71_IuoEZ9I5wEcGJ1-12" source="Bii71_IuoEZ9I5wEcGJ1-20" target="Bii71_IuoEZ9I5wEcGJ1-23">
          <mxGeometry width="160" relative="1" as="geometry">
            <mxPoint x="-325" y="259" as="sourcePoint" />
            <mxPoint x="-165" y="259" as="targetPoint" />
          </mxGeometry>
        </mxCell>
        <mxCell id="Bii71_IuoEZ9I5wEcGJ1-77" value="Include" style="endArrow=blockThin;endSize=6;endFill=1;html=1;rounded=0;dashed=1;labelPosition=center;verticalLabelPosition=top;align=center;verticalAlign=bottom;edgeStyle=orthogonalEdgeStyle;exitX=0.5;exitY=0;exitDx=0;exitDy=0;entryX=0.5;entryY=0;entryDx=0;entryDy=0;strokeWidth=2;fillColor=#0050ef;strokeColor=#001DBC;" edge="1" parent="Bii71_IuoEZ9I5wEcGJ1-12" source="Bii71_IuoEZ9I5wEcGJ1-21" target="Bii71_IuoEZ9I5wEcGJ1-23">
          <mxGeometry width="160" relative="1" as="geometry">
            <mxPoint x="-315" y="269" as="sourcePoint" />
            <mxPoint x="-155" y="269" as="targetPoint" />
          </mxGeometry>
        </mxCell>
        <mxCell id="Bii71_IuoEZ9I5wEcGJ1-78" value="Include" style="endArrow=blockThin;endSize=6;endFill=1;html=1;rounded=0;dashed=1;labelPosition=center;verticalLabelPosition=top;align=center;verticalAlign=bottom;edgeStyle=orthogonalEdgeStyle;exitX=0.5;exitY=0;exitDx=0;exitDy=0;entryX=0.5;entryY=0;entryDx=0;entryDy=0;strokeWidth=2;fillColor=#0050ef;strokeColor=#001DBC;" edge="1" parent="Bii71_IuoEZ9I5wEcGJ1-12" source="Bii71_IuoEZ9I5wEcGJ1-27" target="Bii71_IuoEZ9I5wEcGJ1-23">
          <mxGeometry width="160" relative="1" as="geometry">
            <mxPoint x="-305" y="279" as="sourcePoint" />
            <mxPoint x="-145" y="279" as="targetPoint" />
          </mxGeometry>
        </mxCell>
        <mxCell id="Bii71_IuoEZ9I5wEcGJ1-79" value="Extends" style="endArrow=blockThin;endSize=6;endFill=1;html=1;rounded=0;dashed=1;labelPosition=center;verticalLabelPosition=top;align=center;verticalAlign=bottom;edgeStyle=orthogonalEdgeStyle;exitX=0.5;exitY=0;exitDx=0;exitDy=0;entryX=0.5;entryY=1;entryDx=0;entryDy=0;strokeWidth=2;fillColor=#1ba1e2;strokeColor=#006EAF;" edge="1" parent="Bii71_IuoEZ9I5wEcGJ1-12" source="Bii71_IuoEZ9I5wEcGJ1-22" target="Bii71_IuoEZ9I5wEcGJ1-18">
          <mxGeometry width="160" relative="1" as="geometry">
            <mxPoint x="-295" y="289" as="sourcePoint" />
            <mxPoint x="-135" y="289" as="targetPoint" />
          </mxGeometry>
        </mxCell>
        <mxCell id="Bii71_IuoEZ9I5wEcGJ1-80" value="Include" style="endArrow=blockThin;endSize=6;endFill=1;html=1;rounded=0;dashed=1;labelPosition=center;verticalLabelPosition=top;align=center;verticalAlign=bottom;edgeStyle=orthogonalEdgeStyle;exitX=0.5;exitY=0;exitDx=0;exitDy=0;entryX=0.5;entryY=0;entryDx=0;entryDy=0;strokeWidth=2;strokeColor=#001DBC;fillColor=#0050ef;" edge="1" parent="Bii71_IuoEZ9I5wEcGJ1-12" source="Bii71_IuoEZ9I5wEcGJ1-21">
          <mxGeometry width="160" relative="1" as="geometry">
            <mxPoint x="-285" y="299" as="sourcePoint" />
            <mxPoint x="420" y="112" as="targetPoint" />
          </mxGeometry>
        </mxCell>
        <mxCell id="Bii71_IuoEZ9I5wEcGJ1-81" value="Extends" style="endArrow=blockThin;endSize=6;endFill=1;html=1;rounded=0;dashed=1;labelPosition=center;verticalLabelPosition=top;align=center;verticalAlign=bottom;edgeStyle=orthogonalEdgeStyle;exitX=0.5;exitY=0;exitDx=0;exitDy=0;entryX=0.5;entryY=0;entryDx=0;entryDy=0;strokeWidth=2;fillColor=#0050ef;strokeColor=#001DBC;" edge="1" parent="Bii71_IuoEZ9I5wEcGJ1-12" source="Bii71_IuoEZ9I5wEcGJ1-24" target="Bii71_IuoEZ9I5wEcGJ1-23">
          <mxGeometry width="160" relative="1" as="geometry">
            <mxPoint x="-275" y="309" as="sourcePoint" />
            <mxPoint x="-115" y="309" as="targetPoint" />
          </mxGeometry>
        </mxCell>
        <mxCell id="Bii71_IuoEZ9I5wEcGJ1-33" value="Gestion des clients" style="ellipse;whiteSpace=wrap;html=1;" vertex="1" parent="Bii71_IuoEZ9I5wEcGJ1-12">
          <mxGeometry x="60" y="365" width="80" height="60" as="geometry" />
        </mxCell>
        <mxCell id="Bii71_IuoEZ9I5wEcGJ1-45" style="edgeStyle=orthogonalEdgeStyle;rounded=0;orthogonalLoop=1;jettySize=auto;html=1;endArrow=none;endFill=0;strokeWidth=2;fillColor=#60a917;strokeColor=#2D7600;startArrow=none;entryX=0;entryY=0.5;entryDx=0;entryDy=0;" edge="1" parent="Bii71_IuoEZ9I5wEcGJ1-12" target="Bii71_IuoEZ9I5wEcGJ1-29">
          <mxGeometry relative="1" as="geometry">
            <mxPoint x="-230" y="360" as="sourcePoint" />
            <Array as="points">
              <mxPoint x="160" y="360" />
              <mxPoint x="160" y="400" />
            </Array>
          </mxGeometry>
        </mxCell>
        <mxCell id="Bii71_IuoEZ9I5wEcGJ1-15" value="Gestion du panier" style="ellipse;whiteSpace=wrap;html=1;" vertex="1" parent="1">
          <mxGeometry x="385" y="80" width="80" height="40" as="geometry" />
        </mxCell>
        <mxCell id="Bii71_IuoEZ9I5wEcGJ1-75" value="Include" style="endArrow=blockThin;endSize=6;endFill=1;html=1;rounded=0;dashed=1;labelPosition=center;verticalLabelPosition=top;align=center;verticalAlign=bottom;edgeStyle=orthogonalEdgeStyle;exitX=0.5;exitY=1;exitDx=0;exitDy=0;entryX=0.5;entryY=0;entryDx=0;entryDy=0;strokeWidth=2;fillColor=#0050ef;strokeColor=#001DBC;" edge="1" parent="1" source="Bii71_IuoEZ9I5wEcGJ1-15" target="Bii71_IuoEZ9I5wEcGJ1-20">
          <mxGeometry width="160" relative="1" as="geometry">
            <mxPoint x="420" y="79" as="sourcePoint" />
            <mxPoint x="195" y="199" as="targetPoint" />
          </mxGeometry>
        </mxCell>
        <mxCell id="Bii71_IuoEZ9I5wEcGJ1-85" value="" style="edgeStyle=orthogonalEdgeStyle;rounded=0;orthogonalLoop=1;jettySize=auto;html=1;endArrow=none;endFill=0;strokeWidth=2;fillColor=#6a00ff;strokeColor=#3700CC;" edge="1" parent="1" source="Bii71_IuoEZ9I5wEcGJ1-4" target="Bii71_IuoEZ9I5wEcGJ1-15">
          <mxGeometry relative="1" as="geometry">
            <mxPoint x="140" y="-10" as="sourcePoint" />
            <mxPoint x="630.8081641154693" y="100" as="targetPoint" />
            <Array as="points">
              <mxPoint x="170" y="-10" />
              <mxPoint x="170" y="100" />
            </Array>
          </mxGeometry>
        </mxCell>
        <mxCell id="Bii71_IuoEZ9I5wEcGJ1-74" value="Extends" style="endArrow=blockThin;endSize=6;endFill=1;html=1;rounded=0;dashed=1;exitX=0.5;exitY=0;exitDx=0;exitDy=0;entryX=0.5;entryY=0;entryDx=0;entryDy=0;edgeStyle=orthogonalEdgeStyle;labelPosition=center;verticalLabelPosition=top;align=center;verticalAlign=bottom;strokeWidth=2;fillColor=#b1ddf0;strokeColor=#00FFFF;" edge="1" parent="1" source="Bii71_IuoEZ9I5wEcGJ1-15" target="Bii71_IuoEZ9I5wEcGJ1-16">
          <mxGeometry width="160" relative="1" as="geometry">
            <mxPoint x="420" y="39" as="sourcePoint" />
            <mxPoint x="610" y="209" as="targetPoint" />
            <Array as="points">
              <mxPoint x="420" y="80" />
              <mxPoint x="420" y="70" />
              <mxPoint x="670" y="70" />
            </Array>
          </mxGeometry>
        </mxCell>
      </root>
    </mxGraphModel>
  </diagram>
</mxfile>
